<?xml version="1.0" encoding="UTF-8"?>
<svg id="_图层_1" data-name="图层 1" xmlns="http://www.w3.org/2000/svg" viewBox="0 0 192 78">
  <defs>
    <style>
      .cls-1 {
        fill: #fff;
      }
    </style>
  </defs>
  <g id="TU">
    <polygon class="cls-1" points="49.9 59.31 54.69 54.52 54.69 21.37 49.9 21.37 49.9 59.31"/>
    <path class="cls-1" d="M137.68,12.74v.42c0,2.39-1.46,3.28-1.56,3.28-.07,0-.14-.05-.14-.09,0-.17,.42-.77,.42-1.94,0-.56-.13-1.13-.31-1.67h1.58Z"/>
    <rect class="cls-1" x="74.58" y="45.41" width="94.38" height=".65"/>
    <polygon class="cls-1" points="74.58 51.08 75.09 51.08 75.74 54.26 75.75 54.26 76.44 51.08 77.08 51.08 77.77 54.26 77.78 54.26 78.47 51.08 78.95 51.08 78.09 54.99 77.51 54.99 76.77 51.64 76.75 51.64 76.01 54.99 75.44 54.99 74.58 51.08"/>
    <path class="cls-1" d="M80.89,51.51h-.52v-.55h.52v.55Zm-.49,.63h.46v2.86h-.46v-2.86Z"/>
    <path class="cls-1" d="M82.48,54.45c.22,.13,.44,.21,.67,.21,.36,0,.55-.19,.55-.39s-.12-.35-.38-.47l-.31-.14c-.41-.18-.57-.36-.57-.72,0-.48,.38-.84,.93-.84,.23,0,.44,.04,.59,.11l-.02,.4c-.14-.07-.34-.12-.56-.12-.31,0-.48,.17-.48,.38,0,.23,.17,.36,.49,.49l.16,.07c.35,.14,.58,.37,.58,.73,0,.49-.27,.88-.94,.88-.29,0-.56-.06-.76-.17l.03-.42Z"/>
    <path class="cls-1" d="M87.75,54.47c0,.17,.03,.35,.03,.52h-.45l-.03-.41h0c-.12,.23-.34,.45-.75,.45-.58,0-.98-.48-.98-1.46s.39-1.47,.98-1.47c.33,0,.55,.12,.73,.43h.01v-1.74h.47v3.68Zm-1.1-1.99c-.43,0-.62,.37-.62,1.09s.19,1.08,.62,1.08,.63-.36,.63-1.08-.2-1.09-.63-1.09"/>
    <path class="cls-1" d="M90.42,52.1c.76,0,1.16,.58,1.16,1.47s-.41,1.46-1.16,1.46-1.15-.56-1.15-1.46,.39-1.47,1.15-1.47m0,2.55c.45,0,.66-.35,.66-1.08s-.21-1.09-.66-1.09-.65,.36-.65,1.09,.2,1.08,.65,1.08"/>
    <path class="cls-1" d="M93.12,52.76c0-.2-.01-.41-.02-.61h.47v.42h.02c.14-.32,.39-.47,.71-.47,.3,0,.52,.16,.66,.46,.15-.29,.37-.46,.7-.46,.49,0,.83,.3,.83,.92v1.98h-.47v-1.95c0-.36-.16-.53-.44-.53-.33,0-.54,.21-.54,.72v1.76h-.45v-1.95c0-.36-.16-.53-.44-.53-.35,0-.54,.21-.54,.72v1.76h-.47v-2.23Z"/>
    <path class="cls-1" d="M100.9,52.51c.28,0,.5,.23,.5,.49,0,.29-.22,.5-.5,.5-.26,0-.48-.22-.48-.5,0-.26,.22-.49,.48-.49"/>
    <rect class="cls-1" x="104.91" y="51.08" width=".48" height="3.91"/>
    <path class="cls-1" d="M107.19,52.76c0-.2-.02-.41-.03-.61h.45l.02,.42h0c.16-.32,.39-.47,.73-.47,.5,0,.83,.3,.83,.92v1.98h-.47v-1.84c0-.45-.16-.64-.46-.64-.37,0-.6,.25-.6,.77v1.71h-.47v-2.23Z"/>
    <path class="cls-1" d="M112.15,54.97c-.1,.03-.26,.07-.39,.07-.42,0-.66-.17-.66-.68v-1.83h-.46v-.38h.46v-.6l.46-.15v.74h.59v.38h-.59v1.68c0,.33,.09,.44,.3,.44,.12,0,.21-.03,.28-.07v.39Z"/>
    <path class="cls-1" d="M113.92,53.71c0,.66,.26,.98,.78,.98,.23,0,.5-.13,.66-.24v.42c-.21,.11-.49,.17-.78,.17-.76,0-1.15-.56-1.15-1.46s.39-1.47,1.12-1.47c.63,0,.99,.52,.99,1.35v.26h-1.62Zm1.15-.35c0-.6-.2-.9-.56-.9-.31,0-.58,.23-.59,.9h1.15Z"/>
    <path class="cls-1" d="M119.14,55.13c0,.8-.6,1.11-1.22,1.11-.24,0-.63-.09-.83-.17l.02-.47c.2,.13,.52,.25,.78,.25,.58,0,.81-.34,.81-.84v-.44h-.02c-.19,.33-.44,.48-.74,.48-.61,0-1-.48-1-1.46s.39-1.47,1.04-1.47c.27,0,.54,.17,.7,.46h.02v-.41h.47c-.01,.17-.02,.34-.02,.52v2.46Zm-1.11-.48c.44,0,.63-.35,.63-1.08s-.19-1.09-.63-1.09-.62,.36-.62,1.09,.19,1.08,.62,1.08"/>
    <path class="cls-1" d="M120.78,52.76c0-.2,0-.41,0-.61h.45l.02,.44h.01c.15-.34,.39-.49,.8-.49v.47c-.05-.01-.12-.01-.18-.01-.35,0-.61,.32-.61,.93v1.51h-.49v-2.23Z"/>
    <path class="cls-1" d="M124,51.51h-.52v-.55h.52v.55Zm-.49,.63h.47v2.86h-.47v-2.86Z"/>
    <path class="cls-1" d="M126.98,54.97c-.11,.03-.28,.07-.39,.07-.43,0-.67-.17-.67-.68v-1.83h-.44v-.38h.44v-.6l.47-.15v.74h.59v.38h-.59v1.68c0,.33,.08,.44,.3,.44,.13,0,.2-.03,.29-.07v.39Z"/>
    <path class="cls-1" d="M129.3,55.58c-.14,.49-.35,.66-.7,.66-.12,0-.23,0-.32-.03l.02-.42c.07,.03,.16,.06,.26,.06,.13,0,.23-.07,.3-.37l.12-.43-.9-2.9h.48l.66,2.33h0l.6-2.33h.46l-.98,3.44Z"/>
    <path class="cls-1" d="M134.41,52.51c.28,0,.5,.23,.5,.49,0,.29-.22,.5-.5,.5s-.48-.22-.48-.5c0-.26,.21-.49,.48-.49"/>
    <polygon class="cls-1" points="138.41 51.08 140.24 51.08 140.24 51.51 138.91 51.51 138.91 52.76 140.18 52.76 140.18 53.17 138.91 53.17 138.91 54.57 140.31 54.57 140.31 54.99 138.41 54.99 138.41 51.08"/>
    <polygon class="cls-1" points="142.49 53.46 141.72 52.14 142.24 52.14 142.79 53.17 143.35 52.14 143.86 52.14 143.06 53.48 143.93 54.99 143.39 54.99 142.76 53.81 142.16 54.99 141.63 54.99 142.49 53.46"/>
    <path class="cls-1" d="M147.02,52.64c-.18-.09-.33-.13-.54-.13-.46,0-.8,.3-.8,1.09,0,.67,.33,1.03,.78,1.03,.23,0,.42-.05,.6-.14v.43c-.13,.06-.39,.11-.6,.11-.85,0-1.25-.62-1.25-1.44,0-.92,.47-1.5,1.28-1.5,.19,0,.41,.04,.58,.11l-.03,.43Z"/>
    <path class="cls-1" d="M148.88,53.71c0,.66,.25,.98,.78,.98,.25,0,.5-.13,.66-.24l.02,.42c-.24,.11-.52,.17-.8,.17-.77,0-1.15-.56-1.15-1.46s.38-1.47,1.1-1.47c.65,0,1,.52,1,1.35v.26h-1.62Zm1.14-.35c0-.6-.17-.9-.55-.9-.3,0-.57,.23-.58,.9h1.14Z"/>
    <rect class="cls-1" x="152.08" y="50.8" width=".47" height="4.2"/>
    <rect class="cls-1" x="154.34" y="50.8" width=".46" height="4.2"/>
    <path class="cls-1" d="M156.9,53.71c0,.66,.26,.98,.79,.98,.23,0,.49-.13,.65-.24l.02,.42c-.22,.11-.51,.17-.81,.17-.75,0-1.14-.56-1.14-1.46s.38-1.47,1.11-1.47c.64,0,1,.52,1,1.35v.26h-1.62Zm1.15-.35c0-.6-.19-.9-.57-.9-.3,0-.57,.23-.59,.9h1.15Z"/>
    <path class="cls-1" d="M160.06,52.76c0-.2-.01-.41-.01-.61h.44l.03,.42c.16-.32,.4-.47,.72-.47,.53,0,.84,.3,.84,.92v1.98h-.47v-1.84c0-.45-.17-.64-.47-.64-.36,0-.6,.25-.6,.77v1.71h-.48v-2.23Z"/>
    <path class="cls-1" d="M165.46,52.64c-.18-.09-.32-.13-.55-.13-.46,0-.79,.3-.79,1.09,0,.67,.31,1.03,.77,1.03,.22,0,.41-.05,.57-.14l.03,.43c-.14,.06-.39,.11-.6,.11-.86,0-1.26-.62-1.26-1.44,0-.92,.48-1.5,1.28-1.5,.2,0,.42,.04,.56,.11v.43Z"/>
    <path class="cls-1" d="M167.32,53.71c0,.66,.27,.98,.78,.98,.25,0,.5-.13,.65-.24l.03,.42c-.23,.11-.51,.17-.81,.17-.76,0-1.15-.56-1.15-1.46s.39-1.47,1.11-1.47c.64,0,1,.52,1,1.35v.26h-1.63Zm1.15-.35c0-.6-.19-.9-.55-.9-.31,0-.58,.23-.59,.9h1.15Z"/>
    <path class="cls-1" d="M78.31,13.71h-1.59c-.99,0-1.48,.32-1.78,1.88h-.35c.13-.95,.22-1.89,.29-2.85h8.61c.05,.96,.14,1.9,.27,2.85h-.34c-.32-1.56-.8-1.88-1.79-1.88h-1.6v8.94c0,.59,.21,.9,1.09,1.01v.25c-.68,0-1.43-.11-1.95-.11s-1.27,.11-1.96,.11v-.25c.88-.11,1.1-.42,1.1-1.01V13.71Z"/>
    <path class="cls-1" d="M83.36,23.66c.6-.02,.74-.18,1.1-1.14l3.09-8.52c.06-.17,.11-.36,.11-.57,0-.41-.17-.45-.55-.55v-.25c.42,.06,.89,.11,1.3,.11,.31,0,.62-.05,.92-.11,.08,.49,.29,1.11,.6,1.93l2.94,7.69c.45,1.18,.53,1.3,1.18,1.41v.25c-.47,0-.9-.1-1.36-.1-.69,0-1.35,.1-2.04,.1v-.25c.62-.05,.81-.18,.81-.52,0-.31-.1-.6-.47-1.57l-.71-1.92h-3.76l-.85,2.4c-.17,.48-.29,.93-.29,1.17s.18,.41,.91,.43v.25c-.44,0-.91-.1-1.37-.1-.51,0-1.05,.1-1.56,.1v-.25Zm6.6-4.87l-1.55-4.33h-.02l-1.56,4.33h3.13Z"/>
    <path class="cls-1" d="M93.4,13.77c-.29-.51-.51-.79-1.15-.9v-.25c.64,0,1.25,.11,1.86,.11s1.18-.11,1.79-.11v.25c-.55,.03-.82,.13-.82,.41,0,.17,.05,.36,.2,.68l2.38,4.65,2.21-4.68c.11-.29,.11-.46,.11-.6,0-.29-.24-.42-.83-.45v-.25c.45,0,1.15,.11,1.71,.11,.41,0,.83-.11,1.4-.11v.25c-.68,.04-.9,.34-1.31,1.17l-2.73,5.47v3.12c0,.59,.22,.9,1.11,1.01v.25c-.68,0-1.44-.1-1.96-.1s-1.27,.1-1.95,.1v-.25c.89-.11,1.1-.42,1.1-1.01v-3.12l-3.13-5.75Z"/>
    <path class="cls-1" d="M104.59,13.61c0-.49-.21-.62-.88-.73v-.25c.36,0,1.08,.11,1.73,.11s1.38-.11,1.98-.11v.25c-.9,.07-1.13,.33-1.13,.73v9.21h3.31c1.6,0,2.08-.45,2.24-2.08h.31c-.08,1.02-.12,2.04-.15,3.06h-8.3v-.25c.68-.1,.88-.24,.88-.73V13.61Z"/>
    <path class="cls-1" d="M118.9,12.46c3.87,0,5.41,3.12,5.41,5.67,0,3.01-2.21,5.93-5.66,5.93s-5.46-2.61-5.46-5.75c0-3.43,3.02-5.85,5.72-5.85m.17,10.44c1.85,0,3.65-1.36,3.65-4.14,0-3.05-2.1-5.11-4.31-5.11-1.27,0-3.62,1.01-3.62,4.22,0,2.47,1.59,5.03,4.28,5.03"/>
    <path class="cls-1" d="M126.09,13.71c0-.48-.21-.62-.9-.72v-.25h5.05c2.32,0,3.15,1.21,3.15,2.65,0,1.78-1.52,2.82-3.19,2.97l3.22,4.15c.53,.66,.95,1.1,1.47,1.14v.25c-.32,0-.62-.11-.9-.11-.46,0-.91,.11-1.35,.11-.19-.06-.38-.34-1.78-2.31l-2.26-3c-.2-.28-.34-.44-.34-.52,0-.1,.19-.17,.33-.17,1.81,0,3.08-.75,3.08-2.29,0-1.65-1.48-1.9-2.94-1.9h-.94v9.22c0,.49,.2,.63,.89,.73v.25c-.37,0-1.07-.11-1.74-.11s-1.38,.11-1.75,.11v-.25c.69-.11,.9-.24,.9-.73V13.71Z"/>
    <path class="cls-1" d="M140.06,20.55c.43,1.68,1.71,2.55,3.42,2.55,1.27,0,2.72-.69,2.72-2.23,0-1.4-.83-1.67-2.05-1.92-3-.59-4.6-1.13-4.6-3.26,0-1.73,1.79-3.23,4.6-3.23,.74,0,2.28,.2,2.9,.58-.02,.8,.02,1.62,.07,2.42h-.35c-.24-1.51-1.67-2.02-2.89-2.02-1.89,0-2.84,.89-2.84,1.99,0,1.25,.67,1.45,2.81,1.88,2.19,.44,3.84,.88,3.84,3.2,0,1.93-1.46,3.56-4.69,3.56-1.08,0-2.19-.2-3.18-.81,0-.9-.04-1.81-.11-2.71h.35Z"/>
    <path class="cls-1" d="M74.58,29.23c.55,0,1.07,.12,1.56,.12,.89,0,1.44-.12,1.97-.12v.25c-.38,.02-1.01,.12-1.01,.75v6.82c0,1.86,1.12,2.76,2.54,2.76s2.55-.91,2.55-2.76v-6.82c0-.64-.63-.73-1.01-.75v-.25c.54,0,1.09,.12,1.98,.12,.47,0,1.02-.12,1.56-.12v.25c-.73,.06-.82,.12-.82,.88v6.37c0,2.7-1.57,3.95-4.26,3.95s-4.24-1.26-4.24-3.95v-6.37c0-.76-.1-.82-.82-.88v-.25Z"/>
    <path class="cls-1" d="M87.29,30.21c0-.49-.2-.62-.89-.73v-.25c.49,0,1,.12,1.48,.12s.86-.12,1.3-.12l5.92,8.16h.04v-6.33c0-1.16-.28-1.43-1.23-1.58v-.25c.5,0,.99,.12,1.48,.12,.58,0,1.15-.12,1.72-.12v.25c-.69,.11-.9,.24-.9,.73v10.3h-1.02l-6.78-9.35h-.03v7.51c0,1.17,.26,1.44,1.21,1.59v.25c-.49,0-.98-.11-1.47-.11-.57,0-1.15,.11-1.73,.11v-.25c.7-.11,.89-.24,.89-.74v-9.31Z"/>
    <path class="cls-1" d="M98.45,40.27c.69-.11,.91-.25,.91-.74v-9.31c0-.49-.22-.62-.91-.73v-.25c.38,0,1.09,.12,1.76,.12s1.37-.12,1.74-.12v.25c-.69,.11-.9,.24-.9,.73v9.31c0,.49,.21,.63,.9,.74v.24c-.36,0-1.06-.11-1.74-.11s-1.38,.11-1.76,.11v-.24Z"/>
    <path class="cls-1" d="M103.21,29.23c.69,0,1.41,.12,2.11,.12,.5,0,.99-.12,1.51-.12v.25c-.66,.02-.88,.18-.88,.51,0,.19,.11,.55,.19,.75l2.78,7.75h.05l2.48-7.5c.15-.44,.24-.77,.24-.98,0-.35-.48-.47-.83-.53v-.25c.53,0,1.06,.12,1.6,.12,.43,0,.87-.12,1.31-.12v.25c-.57,.06-.87,.42-1.06,.94l-3.41,10.09h-1.17l-3.83-10.24c-.15-.38-.29-.72-1.08-.79v-.25Z"/>
    <path class="cls-1" d="M115.64,30.33c0-.49-.22-.64-.89-.73v-.24h8.41c0,.85,.04,1.71,.1,2.57h-.34c-.22-1.4-.81-1.6-1.58-1.6h-4v3.73h2.48c.62,0,.98-.05,1.1-1.02h.35c-.05,.51-.11,.98-.11,1.49,0,.54,.06,1.01,.11,1.52h-.35c-.11-.97-.48-1.02-1.1-1.02h-2.48v4.41h3.7c1.47,0,2.09-.3,2.4-1.89h.33c-.08,.96-.15,1.9-.17,2.86h-8.86v-.24c.66-.1,.89-.24,.89-.73v-9.1Z"/>
    <path class="cls-1" d="M126.03,30.33c0-.49-.21-.64-.88-.73v-.24h5.05c2.32,0,3.12,1.19,3.12,2.64,0,1.76-1.48,2.83-3.16,2.97l3.21,4.14c.52,.67,.96,1.09,1.46,1.16v.24c-.31,0-.61-.11-.9-.11-.46,0-.92,.11-1.35,.11-.19-.05-.37-.34-1.77-2.31l-2.25-3.02c-.21-.28-.35-.43-.35-.51,0-.1,.2-.17,.34-.17,1.81,0,3.09-.75,3.09-2.28,0-1.65-1.49-1.89-2.96-1.89h-.94v9.2c0,.49,.22,.63,.88,.74v.24c-.35,0-1.06-.11-1.73-.11s-1.37,.11-1.73,.11v-.24c.67-.11,.88-.25,.88-.74v-9.2Z"/>
    <path class="cls-1" d="M136.14,37.16c.41,1.68,1.71,2.54,3.42,2.54,1.28,0,2.72-.67,2.72-2.23,0-1.4-.85-1.67-2.04-1.91-3-.59-4.62-1.14-4.62-3.26,0-1.73,1.81-3.23,4.62-3.23,.74,0,2.26,.19,2.9,.56-.02,.81,0,1.64,.05,2.43h-.34c-.25-1.53-1.67-2.03-2.89-2.03-1.88,0-2.85,.9-2.85,2,0,1.26,.68,1.44,2.83,1.88,2.18,.43,3.84,.87,3.84,3.19,0,1.94-1.47,3.59-4.71,3.59-1.07,0-2.17-.21-3.17-.82,0-.91-.04-1.8-.11-2.7h.35Z"/>
    <path class="cls-1" d="M144.65,40.27c.69-.11,.9-.25,.9-.74v-9.31c0-.49-.21-.62-.9-.73v-.25c.38,0,1.09,.12,1.76,.12s1.35-.12,1.72-.12v.25c-.67,.11-.87,.24-.87,.73v9.31c0,.49,.2,.63,.87,.74v.24c-.37,0-1.07-.11-1.72-.11s-1.38,.11-1.76,.11v-.24Z"/>
    <path class="cls-1" d="M152.61,30.31h-1.6c-.97,0-1.47,.32-1.78,1.88h-.36c.13-.97,.23-1.9,.29-2.86h8.62c.03,.95,.16,1.89,.28,2.86h-.36c-.31-1.56-.8-1.88-1.78-1.88h-1.61v8.93c0,.59,.2,.91,1.1,1.02v.24c-.68,0-1.43-.1-1.95-.1s-1.28,.1-1.96,.1v-.24c.88-.1,1.09-.42,1.09-1.02v-8.93Z"/>
    <path class="cls-1" d="M160.08,30.36c-.28-.5-.51-.78-1.13-.88v-.25c.62,0,1.24,.11,1.84,.11s1.2-.11,1.8-.11v.25c-.56,.02-.82,.12-.82,.41,0,.16,.06,.36,.22,.67l2.36,4.64,2.21-4.68c.13-.28,.13-.45,.13-.59,0-.3-.25-.42-.84-.45v-.25c.44,0,1.15,.11,1.69,.11,.43,0,.85-.11,1.41-.11v.25c-.66,.03-.89,.33-1.3,1.18l-2.71,5.46v3.12c0,.59,.2,.91,1.09,1.02v.24c-.68,0-1.43-.1-1.95-.1s-1.28,.1-1.96,.1v-.24c.89-.1,1.1-.42,1.1-1.02v-3.12l-3.14-5.76Z"/>
    <polygon class="cls-1" points="23.04 12.75 23.04 26.18 27.92 31.05 27.92 18.25 59.42 18.25 59.42 31.05 64.29 26.18 64.29 12.75 23.04 12.75"/>
    <polygon class="cls-1" points="40.97 21.37 40.97 62.86 43.68 65.54 46.36 62.86 46.36 21.37 40.97 21.37"/>
    <polygon class="cls-1" points="37.45 59.31 32.65 54.52 32.65 21.37 37.45 21.37 37.45 59.31"/>
  </g>
</svg>